<svg width="16" height="16" viewBox="0 0 16 16" fill="none" xmlns="http://www.w3.org/2000/svg">
<path d="M6.46382 8.83197C6.41582 8.83197 5.35982 8.83197 4.87982 8.83197C4.62382 8.83197 4.54382 8.73597 4.54382 8.49597C4.54382 7.85597 4.54382 7.19997 4.54382 6.55997C4.54382 6.30397 4.63982 6.22397 4.87982 6.22397H6.46382C6.46382 6.17597 6.46382 5.24797 6.46382 4.81597C6.46382 4.17597 6.57582 3.56797 6.89582 3.00797C7.23182 2.43197 7.71182 2.04797 8.31982 1.82397C8.71982 1.67997 9.11982 1.61597 9.55182 1.61597H11.1198C11.3438 1.61597 11.4398 1.71197 11.4398 1.93597V3.75997C11.4398 3.98397 11.3438 4.07997 11.1198 4.07997C10.6878 4.07997 10.2558 4.07997 9.82382 4.09597C9.39182 4.09597 9.16782 4.30397 9.16782 4.75197C9.15182 5.23197 9.16782 5.69597 9.16782 6.19197H11.0238C11.2798 6.19197 11.3758 6.28797 11.3758 6.54397V8.47997C11.3758 8.73597 11.2958 8.81597 11.0238 8.81597C10.4478 8.81597 9.21582 8.81597 9.16782 8.81597V14.032C9.16782 14.304 9.08782 14.4 8.79982 14.4C8.12782 14.4 7.47182 14.4 6.79982 14.4C6.55982 14.4 6.46382 14.304 6.46382 14.064C6.46382 12.384 6.46382 8.87997 6.46382 8.83197Z" fill="#A4AFC1"/>
</svg>
