<svg aria-hidden="true" style="position: absolute; width: 0; height: 0; overflow: hidden;" version="1.1" xmlns="http://www.w3.org/2000/svg" xmlns:xlink="http://www.w3.org/1999/xlink">
<defs>

<symbol id="contact" viewBox="0 0 32 32">
<path d="M30.222 22.222c-2.222 0-4.356-0.356-6.347-1.013-0.622-0.196-1.316-0.053-1.813 0.427l-3.911 3.911c-5.031-2.56-9.156-6.667-11.716-11.698l3.911-3.929c0.498-0.48 0.64-1.173 0.444-1.796-0.658-1.991-1.013-4.124-1.013-6.347 0-0.978-0.8-1.778-1.778-1.778h-6.222c-0.978 0-1.778 0.8-1.778 1.778 0 16.693 13.529 30.222 30.222 30.222 0.978 0 1.778-0.8 1.778-1.778v-6.222c0-0.978-0.8-1.778-1.778-1.778zM16-0v17.778l5.333-5.333h10.667v-12.444h-16z"></path>
</symbol>

<symbol id="logo" viewBox="0 0 30 32">
<path fill="#18e8a4" style="fill: var(--color1, #18e8a4)" d="M0 15.131l14.567-14.623 14.567 14.623-14.567 14.623-14.567-14.623z"></path>
<path fill="#020213" style="fill: var(--color2, #020213)" d="M25.085 15.083l-1.995-2.010-7.057 7.113v-4.016l5.066-5.104-1.991-2.006-3.075 3.097v-5.608h-2.817v5.608l-3.075-3.097-1.995 2.006 5.069 5.104v15.264h2.817v-7.232l9.052-9.119z"></path>
</symbol>


<symbol id="menu" viewBox="0 0 32 32">
<path d="M0 0h32v4h-32v-4zM0 14h32v4h-32v-4zM32 28h-32v4h32v-4z"></path>
</symbol>

<symbol id="facebook" viewBox="0 0 32 32">
<path d="M19 6h5v-6h-5c-3.86 0-7 3.14-7 7v3h-4v6h4v16h6v-16h5l1-6h-6v-3c0-0.542 0.458-1 1-1z"></path>
</symbol>

<symbol id="twitter" viewBox="0 0 32 32">
<path d="M32 7.075c-1.175 0.525-2.444 0.875-3.769 1.031 1.356-0.813 2.394-2.1 2.887-3.631-1.269 0.75-2.675 1.3-4.169 1.594-1.2-1.275-2.906-2.069-4.794-2.069-3.625 0-6.563 2.938-6.563 6.563 0 0.512 0.056 1.012 0.169 1.494-5.456-0.275-10.294-2.888-13.531-6.862-0.563 0.969-0.887 2.1-0.887 3.3 0 2.275 1.156 4.287 2.919 5.463-1.075-0.031-2.087-0.331-2.975-0.819 0 0.025 0 0.056 0 0.081 0 3.181 2.263 5.838 5.269 6.437-0.55 0.15-1.131 0.231-1.731 0.231-0.425 0-0.831-0.044-1.237-0.119 0.838 2.606 3.263 4.506 6.131 4.563-2.25 1.762-5.075 2.813-8.156 2.813-0.531 0-1.050-0.031-1.569-0.094 2.913 1.869 6.362 2.95 10.069 2.95 12.075 0 18.681-10.006 18.681-18.681 0-0.287-0.006-0.569-0.019-0.85 1.281-0.919 2.394-2.075 3.275-3.394z"></path>
</symbol>

<symbol id="linkedin" viewBox="0 0 32 32">
<path d="M12 12h5.535v2.837h0.079c0.77-1.381 2.655-2.837 5.464-2.837 5.842 0 6.922 3.637 6.922 8.367v9.633h-5.769v-8.54c0-2.037-0.042-4.657-3.001-4.657-3.005 0-3.463 2.218-3.463 4.509v8.688h-5.767v-18z"></path>
<path d="M2 12h6v18h-6v-18z"></path>
<path d="M8 7c0 1.657-1.343 3-3 3s-3-1.343-3-3c0-1.657 1.343-3 3-3s3 1.343 3 3z"></path>
</symbol>

</defs>
</svg>
