<svg width="1417" height="175" fill="none" xmlns="http://www.w3.org/2000/svg"><path d="M6 161h491c13.255 0 24-10.745 24-24V30c0-13.255 10.745-24 24-24h2c13.255 0 24 10.745 24 24v107c0 13.255 10.745 24 24 24h544c13.25 0 24-10.745 24-24V30c0-13.255 10.75-24 24-24h2c13.25 0 24 10.745 24 24v107c0 13.255 10.75 24 24 24h174" stroke="#000" stroke-opacity=".1" stroke-width="12" stroke-linecap="round" stroke-linejoin="round"/><path d="M67 149l12 12-12 12m-35-12h47m431-67l12-12 12 12m-12 28V82m629 12l12-12 12 12m-12 28V82m-603 4l12 12 12-12m-12-28v40m629-12l12 12 12-12m-12-28v40m-820 51l12 12-12 12m-35-12h47m314-12l12 12-12 12m-35-12h47m314-12l12 12-12 12m-35-12h47m314-12l12 12-12 12m-35-12h47" stroke="#484A4A" stroke-width="4" stroke-linecap="round" stroke-linejoin="round"/></svg>