<svg width="16" height="16" fill="none" xmlns="http://www.w3.org/2000/svg"><path d="M6.464 8.832H4.88c-.256 0-.336-.096-.336-.336V6.56c0-.256.096-.336.336-.336h1.584V4.816c0-.64.112-1.248.432-1.808.336-.576.816-.96 1.424-1.184.4-.144.8-.208 1.232-.208h1.568c.224 0 .32.096.32.32V3.76c0 .224-.096.32-.32.32-.432 0-.864 0-1.296.016-.432 0-.656.208-.656.656-.016.48 0 .944 0 1.44h1.856c.256 0 .352.096.352.352V8.48c0 .256-.08.336-.352.336H9.168v5.216c0 .272-.08.368-.368.368h-2c-.24 0-.336-.096-.336-.336V8.832z" fill="#A4AFC1"/></svg>