<svg aria-hidden="true" style="position:absolute;width:0;height:0" xmlns="http://www.w3.org/2000/svg" overflow="hidden"><defs><symbol id="contact" viewBox="0 0 32 32"><path d="M30.222 22.222c-2.222 0-4.356-.356-6.347-1.013a1.813 1.813 0 00-1.813.427l-3.911 3.911A26.802 26.802 0 016.435 13.849l3.911-3.929c.498-.48.64-1.173.444-1.796a20.188 20.188 0 01-1.013-6.347c0-.978-.8-1.778-1.778-1.778H1.777c-.978 0-1.778.8-1.778 1.778 0 16.693 13.529 30.222 30.222 30.222.978 0 1.778-.8 1.778-1.778v-6.222c0-.978-.8-1.778-1.778-1.778zM16 0v17.778l5.333-5.333H32V.001H16z"/></symbol><symbol id="logo" viewBox="0 0 30 32"><path fill="var(--color1, #18e8a4)" d="M0 15.131L14.567.508l14.567 14.623-14.567 14.623L0 15.131z"/><path fill="var(--color2, #020213)" d="M25.085 15.083l-1.995-2.01-7.057 7.113V16.17l5.066-5.104-1.991-2.006-3.075 3.097V6.549h-2.817v5.608L10.141 9.06l-1.995 2.006 5.069 5.104v15.264h2.817v-7.232l9.052-9.119z"/></symbol><symbol id="menu" viewBox="0 0 32 32"><path d="M0 0h32v4H0V0zm0 14h32v4H0v-4zm32 14H0v4h32v-4z"/></symbol><symbol id="facebook" viewBox="0 0 32 32"><path d="M19 6h5V0h-5c-3.86 0-7 3.14-7 7v3H8v6h4v16h6V16h5l1-6h-6V7c0-.542.458-1 1-1z"/></symbol><symbol id="twitter" viewBox="0 0 32 32"><path d="M32 7.075a12.941 12.941 0 01-3.769 1.031 6.601 6.601 0 002.887-3.631 13.21 13.21 0 01-4.169 1.594A6.565 6.565 0 0022.155 4a6.563 6.563 0 00-6.563 6.563c0 .512.056 1.012.169 1.494A18.635 18.635 0 012.23 5.195a6.56 6.56 0 00-.887 3.3 6.557 6.557 0 002.919 5.463 6.565 6.565 0 01-2.975-.819v.081a6.565 6.565 0 005.269 6.437 6.574 6.574 0 01-2.968.112 6.588 6.588 0 006.131 4.563 13.17 13.17 0 01-9.725 2.719 18.568 18.568 0 0010.069 2.95c12.075 0 18.681-10.006 18.681-18.681 0-.287-.006-.569-.019-.85A13.216 13.216 0 0032 7.076z"/></symbol><symbol id="linkedin" viewBox="0 0 32 32"><path d="M12 12h5.535v2.837h.079c.77-1.381 2.655-2.837 5.464-2.837C28.92 12 30 15.637 30 20.367V30h-5.769v-8.54c0-2.037-.042-4.657-3.001-4.657-3.005 0-3.463 2.218-3.463 4.509V30H12V12zM2 12h6v18H2V12zm6-5a3 3 0 11-6 0 3 3 0 016 0z"/></symbol></defs></svg>