<svg width="192" height="192" fill="none" xmlns="http://www.w3.org/2000/svg"><path d="M44.677 22.224c36.89 0 62.224-19.11 80-19.11 17.776 0 55.109 10.219 55.109 91.995 0 81.776-50.224 93.776-69.776 93.776-91.557.005-130.666-166.661-65.333-166.661z" fill="#EFEFEF"/><path d="M143.482 19.287l3.771-3.77 7.543 7.542-3.772 3.77-7.542-7.542zm21.682 21.686l3.771-3.772 7.543 7.543-3.772 3.771-7.542-7.542zm-.943-17.913l7.542-7.542 3.771 3.772-7.542 7.542-3.771-3.771z" fill="#A4AFC1"/><path d="M113.333 134.666H36V116c0-8.838 7.163-16 16-16h45.333c8.838 0 16 7.162 16 16v18.666zM74.667 81.334c11.045 0 20-8.955 20-20 0-11.046-8.955-20-20-20-11.046 0-20 8.954-20 20 0 11.045 8.954 20 20 20z" fill="#F3F3F1"/><path d="M94.613 60.267C85.547 61.653 80 52 80 52c-9.387 8.747-21.28 8.533-25.28 8.16.587-10.506 9.28-18.826 19.947-18.826 10.666 0 19.413 8.373 19.946 18.933zM125.333 156C142.27 156 156 142.27 156 125.334c0-16.937-13.73-30.667-30.667-30.667s-30.666 13.73-30.666 30.667c0 16.936 13.729 30.666 30.666 30.666z" fill="#2FDF84"/><path d="M106.667 125.334c0-14.88 10.602-27.28 24.666-30.07a30.884 30.884 0 00-6-.597c-16.938 0-30.666 13.728-30.666 30.667 0 16.938 13.728 30.666 30.666 30.666a30.5 30.5 0 006-.597c-14.064-2.789-24.666-15.189-24.666-30.069z" fill="#00B871"/><path d="M64 100H52c-8.837 0-16 7.162-16 16v18.666h12V116c0-8.838 7.163-16 16-16zm2.667-38.666c0-8.94 5.904-16.422 14-18.982-1.904-.602-3.894-1.018-6-1.018-11.046 0-20 8.954-20 20 0 11.045 8.954 20 20 20 2.106 0 4.096-.416 6-1.02-8.096-2.56-14-10.042-14-18.98z" fill="#D5DBE1"/><path d="M80.656 42.342c-1.899-.603-3.888-1.008-5.99-1.008-10.666 0-19.36 8.32-19.946 18.826 2.213.208 6.875.304 12.165-1.082.886-7.937 6.374-14.395 13.771-16.736z" fill="#00B871"/><path d="M92.79 64.406c-6.193 0-10.78-3.702-13.478-6.694-10.064 7.136-21.45 6.757-24.965 6.432l.746-7.963c3.099.294 13.878.64 22.182-7.103a3.99 3.99 0 013.322-1.03 4.007 4.007 0 012.875 1.963c.032.053 4.33 7.205 10.544 6.304l1.21 7.904a16.19 16.19 0 01-2.437.187z" fill="#000"/><path d="M74.667 85.333c-13.232 0-24-10.768-24-24s10.768-24 24-24 24 10.768 24 24-10.768 24-24 24zm0-40c-8.822 0-16 7.179-16 16s7.178 16 16 16c8.821 0 16-7.179 16-16s-7.179-16-16-16zM125.333 160c-19.114 0-34.666-15.552-34.666-34.667 0-19.114 15.552-34.666 34.666-34.666 19.115 0 34.667 15.552 34.667 34.666C160 144.448 144.448 160 125.333 160zm0-61.334c-14.704 0-26.666 11.963-26.666 26.667 0 14.704 11.962 26.667 26.666 26.667S152 140.037 152 125.333c0-14.704-11.963-26.666-26.667-26.666z" fill="#000"/><path d="M120 138.666a3.985 3.985 0 01-2.827-1.173l-10.666-10.667 5.658-5.658 7.643 7.642 15.851-18.112 6.021 5.264-18.667 21.334a4.008 4.008 0 01-2.88 1.365c-.042.005-.09.005-.133.005zm-40 .001H36c-2.208 0-4-1.792-4-4V116c0-11.029 8.97-20 20-20h33.44v8H52c-6.619 0-12 5.381-12 12v14.667h40v8z" fill="#000"/></svg>