<svg width="192" height="192" fill="none" xmlns="http://www.w3.org/2000/svg"><path d="M169.776 147.322c0-36.89 19.109-62.224 19.109-80 0-17.776-10.218-55.109-91.994-55.109S3.109 62.437 3.109 81.99c0 91.557 166.667 130.667 166.667 65.333z" fill="#EFEFEF"/><path d="M141.333 69.334c-4.41 0-8-3.59-8-8 0-4.411 3.59-8 8-8 4.411 0 8 3.589 8 8 0 4.41-3.589 8-8 8zm0-10.667a2.671 2.671 0 00-2.666 2.666A2.67 2.67 0 00141.333 64 2.671 2.671 0 00144 61.334a2.67 2.67 0 00-2.667-2.667z" fill="#A4AFC1"/><path d="M113.333 134.667H36V116c0-8.837 7.163-16 16-16h45.333c8.838 0 16 7.163 16 16v18.667zM74.667 81.334c11.045 0 20-8.955 20-20 0-11.046-8.955-20-20-20-11.046 0-20 8.954-20 20 0 11.045 8.954 20 20 20z" fill="#F3F3F1"/><path d="M94.613 60.267C85.547 61.653 80 52 80 52c-9.387 8.747-21.28 8.533-25.28 8.16.587-10.506 9.28-18.826 19.947-18.826 10.666 0 19.413 8.373 19.946 18.933zM125.333 156C142.27 156 156 142.27 156 125.334c0-16.937-13.73-30.667-30.667-30.667-16.936 0-30.666 13.73-30.666 30.667 0 16.936 13.73 30.666 30.666 30.666z" fill="#E8184A"/><path d="M106.667 125.334c0-14.88 10.602-27.28 24.666-30.07a30.884 30.884 0 00-6-.597c-16.938 0-30.666 13.728-30.666 30.667 0 16.938 13.728 30.666 30.666 30.666a30.5 30.5 0 006-.597c-14.064-2.789-24.666-15.189-24.666-30.069z" fill="#000" fill-opacity=".2"/><path d="M64 100H52c-8.837 0-16 7.163-16 16v18.667h12V116c0-8.837 7.163-16 16-16zm2.667-38.666c0-8.94 5.904-16.422 14-18.982-1.904-.602-3.894-1.018-6-1.018-11.046 0-20 8.954-20 20 0 11.045 8.954 20 20 20 2.106 0 4.096-.416 6-1.02-8.096-2.56-14-10.042-14-18.98z" fill="#D5DBE1"/><path d="M80.656 42.342c-1.899-.603-3.888-1.008-5.99-1.008-10.666 0-19.36 8.32-19.946 18.826 2.213.208 6.875.304 12.165-1.082.886-7.937 6.374-14.395 13.771-16.736z" fill="#BA133B"/><path d="M92.79 64.406c-6.193 0-10.78-3.702-13.478-6.694-10.053 7.13-21.419 6.773-24.97 6.432l.751-7.963c3.115.294 13.878.635 22.176-7.103a4.005 4.005 0 016.198.933c.032.053 4.33 7.205 10.544 6.304l1.21 7.904a16.07 16.07 0 01-2.432.187z" fill="#000"/><path d="M74.667 85.333c-13.232 0-24-10.768-24-24s10.768-24 24-24 24 10.768 24 24-10.768 24-24 24zm0-40c-8.822 0-16 7.179-16 16s7.178 16 16 16c8.821 0 16-7.179 16-16s-7.179-16-16-16zM125.333 160c-19.114 0-34.666-15.552-34.666-34.667 0-19.114 15.552-34.666 34.666-34.666 19.115 0 34.667 15.552 34.667 34.666C160 144.448 144.448 160 125.333 160zm0-61.334c-14.704 0-26.666 11.963-26.666 26.667 0 14.704 11.962 26.667 26.666 26.667S152 140.037 152 125.333c0-14.704-11.963-26.666-26.667-26.666z" fill="#000"/><path d="M113.146 131.837l18.668-18.667 5.657 5.657-18.668 18.667-5.657-5.657z" fill="#000"/><path d="M113.146 118.829l5.657-5.657 18.668 18.668-5.657 5.656-18.668-18.667zM80 138.667H36c-2.208 0-4-1.792-4-4V116c0-11.029 8.976-20 20-20h33.44v8H52c-6.614 0-12 5.381-12 12v14.667h40v8z" fill="#000"/></svg>